<svg id="visual" viewBox="0 0 960 540" width="960" height="540" xmlns="http://www.w3.org/2000/svg" xmlns:xlink="http://www.w3.org/1999/xlink" version="1.1"><path d="M0 78L10.7 81.3C21.3 84.7 42.7 91.3 64 94.5C85.3 97.7 106.7 97.3 128 101.2C149.3 105 170.7 113 192 123.3C213.3 133.7 234.7 146.3 256 142.3C277.3 138.3 298.7 117.7 320 97.3C341.3 77 362.7 57 384 54.2C405.3 51.3 426.7 65.7 448 68.7C469.3 71.7 490.7 63.3 512 65.2C533.3 67 554.7 79 576 95.3C597.3 111.7 618.7 132.3 640 129.8C661.3 127.3 682.7 101.7 704 90.3C725.3 79 746.7 82 768 88.8C789.3 95.7 810.7 106.3 832 117.5C853.3 128.7 874.7 140.3 896 128.2C917.3 116 938.7 80 949.3 62L960 44L960 0L949.3 0C938.7 0 917.3 0 896 0C874.7 0 853.3 0 832 0C810.7 0 789.3 0 768 0C746.7 0 725.3 0 704 0C682.7 0 661.3 0 640 0C618.7 0 597.3 0 576 0C554.7 0 533.3 0 512 0C490.7 0 469.3 0 448 0C426.7 0 405.3 0 384 0C362.7 0 341.3 0 320 0C298.7 0 277.3 0 256 0C234.7 0 213.3 0 192 0C170.7 0 149.3 0 128 0C106.7 0 85.3 0 64 0C42.7 0 21.3 0 10.7 0L0 0Z" fill="#0036ff" stroke-linecap="round" stroke-linejoin="miter"></path></svg>