<svg id="visual" width="960" height="540" xmlns="http://www.w3.org/2000/svg" version="1.1"><path d="m0 78 10.7 3.3c10.6 3.4 32 10 53.3 13.2 21.3 3.2 42.7 2.8 64 6.7 21.3 3.8 42.7 11.8 64 22.1 21.3 10.4 42.7 23 64 19 21.3-4 42.7-24.6 64-45C341.3 77 362.7 57 384 54.2c21.3-2.9 42.7 11.5 64 14.5 21.3 3 42.7-5.4 64-3.5 21.3 1.8 42.7 13.8 64 30.1 21.3 16.4 42.7 37 64 34.5 21.3-2.5 42.7-28.1 64-39.5 21.3-11.3 42.7-8.3 64-1.5 21.3 6.9 42.7 17.5 64 28.7 21.3 11.2 42.7 22.8 64 10.7C917.3 116 938.7 80 949.3 62L960 44V0H0Z" fill="#0036ff" stroke-linecap="round"/></svg>